<svg xmlns="http://www.w3.org/2000/svg" xmlns:xlink="http://www.w3.org/1999/xlink" width="1080" zoomAndPan="magnify" viewBox="0 0 810 809.999993" height="1080" preserveAspectRatio="xMidYMid meet" version="1.0"><defs><clipPath id="7c77df2402"><path d="M 19.917969 19.917969 L 790.167969 19.917969 L 790.167969 790.167969 L 19.917969 790.167969 Z M 19.917969 19.917969 " clip-rule="nonzero"/></clipPath></defs><g clip-path="url(#7c77df2402)"><path fill="#bf576a" d="M 790.074219 704.5 C 790.074219 751.757812 751.757812 790.074219 704.5 790.074219 L 105.492188 790.074219 C 58.234375 790.074219 19.917969 751.757812 19.917969 704.5 L 19.917969 105.492188 C 19.917969 58.234375 58.234375 19.917969 105.492188 19.917969 L 704.5 19.917969 C 751.757812 19.917969 790.074219 58.234375 790.074219 105.492188 Z M 790.074219 704.5 " fill-opacity="1" fill-rule="nonzero"/></g><path fill="#dbccd0" d="M 702.039062 314.375 C 702.039062 223.859375 628.660156 150.480469 538.167969 150.480469 C 483.253906 150.480469 434.753906 177.605469 404.996094 219.066406 C 375.257812 177.605469 326.761719 150.480469 271.84375 150.480469 C 181.328125 150.480469 107.949219 223.859375 107.949219 314.375 C 107.949219 327.210938 109.578125 339.617188 112.359375 351.597656 C 135.121094 492.984375 292.316406 642.140625 404.996094 683.109375 C 517.652344 642.140625 674.851562 492.984375 697.613281 351.597656 C 700.414062 339.617188 702.039062 327.210938 702.039062 314.375 Z M 702.039062 314.375 " fill-opacity="1" fill-rule="nonzero"/></svg>