<svg xmlns="http://www.w3.org/2000/svg" xmlns:xlink="http://www.w3.org/1999/xlink" width="1080" zoomAndPan="magnify" viewBox="0 0 810 809.999993" height="1080" preserveAspectRatio="xMidYMid meet" version="1.0"><defs><clipPath id="6bbd4da70c"><path d="M 12.378906 2 L 810 2 L 810 810 L 12.378906 810 Z M 12.378906 2 " clip-rule="nonzero"/></clipPath><clipPath id="fba68a9920"><path d="M 0 2 L 799.386719 2 L 799.386719 810 L 0 810 Z M 0 2 " clip-rule="nonzero"/></clipPath></defs><g clip-path="url(#6bbd4da70c)"><path fill="#d892a5" d="M 415.449219 811.136719 C 413.230469 811.109375 411.101562 810.65625 409.058594 809.785156 C 407.015625 808.914062 405.21875 807.6875 403.660156 806.105469 L 16.207031 418.613281 C 15.800781 418.222656 15.417969 417.816406 15.058594 417.386719 C 14.695312 416.957031 14.355469 416.511719 14.039062 416.050781 C 13.71875 415.585938 13.425781 415.109375 13.15625 414.617188 C 12.886719 414.125 12.640625 413.621094 12.421875 413.101562 C 12.203125 412.585938 12.011719 412.058594 11.84375 411.523438 C 11.679688 410.988281 11.539062 410.445312 11.429688 409.894531 C 11.316406 409.34375 11.230469 408.789062 11.175781 408.230469 C 11.121094 407.671875 11.089844 407.113281 11.089844 406.550781 C 11.089844 405.988281 11.121094 405.429688 11.175781 404.871094 C 11.230469 404.3125 11.316406 403.757812 11.429688 403.207031 C 11.539062 402.660156 11.679688 402.113281 11.84375 401.578125 C 12.011719 401.042969 12.203125 400.515625 12.421875 400 C 12.640625 399.484375 12.886719 398.976562 13.15625 398.484375 C 13.425781 397.992188 13.71875 397.515625 14.039062 397.054688 C 14.355469 396.589844 14.695312 396.144531 15.058594 395.714844 C 15.417969 395.285156 15.800781 394.878906 16.207031 394.488281 L 403.660156 7.136719 C 404.058594 6.746094 404.476562 6.375 404.910156 6.023438 C 405.34375 5.675781 405.792969 5.347656 406.257812 5.042969 C 406.722656 4.734375 407.203125 4.453125 407.695312 4.191406 C 408.191406 3.933594 408.695312 3.699219 409.210938 3.488281 C 409.726562 3.277344 410.25 3.089844 410.785156 2.933594 C 411.316406 2.773438 411.859375 2.636719 412.40625 2.53125 C 412.953125 2.425781 413.503906 2.34375 414.058594 2.289062 C 414.613281 2.234375 415.167969 2.207031 415.726562 2.207031 C 416.28125 2.207031 416.839844 2.234375 417.394531 2.289062 C 417.949219 2.34375 418.5 2.425781 419.046875 2.53125 C 419.59375 2.636719 420.132812 2.773438 420.667969 2.933594 C 421.199219 3.089844 421.726562 3.277344 422.242188 3.488281 C 422.757812 3.699219 423.261719 3.933594 423.753906 4.191406 C 424.246094 4.453125 424.726562 4.734375 425.191406 5.042969 C 425.65625 5.347656 426.109375 5.675781 426.542969 6.023438 C 426.976562 6.375 427.390625 6.746094 427.789062 7.136719 L 815.140625 394.625 C 815.542969 395.015625 815.925781 395.425781 816.285156 395.855469 C 816.648438 396.285156 816.988281 396.730469 817.304688 397.195312 C 817.621094 397.65625 817.914062 398.132812 818.183594 398.625 C 818.453125 399.117188 818.695312 399.625 818.914062 400.140625 C 819.132812 400.65625 819.324219 401.183594 819.488281 401.71875 C 819.65625 402.253906 819.792969 402.796875 819.90625 403.347656 C 820.015625 403.898438 820.101562 404.453125 820.15625 405.011719 C 820.210938 405.566406 820.242188 406.128906 820.242188 406.6875 C 820.242188 407.25 820.210938 407.808594 820.15625 408.367188 C 820.101562 408.925781 820.015625 409.480469 819.90625 410.03125 C 819.792969 410.578125 819.65625 411.121094 819.488281 411.660156 C 819.324219 412.195312 819.132812 412.722656 818.914062 413.238281 C 818.695312 413.753906 818.453125 414.257812 818.183594 414.75 C 817.914062 415.242188 817.621094 415.722656 817.304688 416.183594 C 816.988281 416.648438 816.648438 417.09375 816.285156 417.523438 C 815.925781 417.953125 815.542969 418.363281 815.140625 418.753906 L 427.617188 806.105469 C 426.003906 807.714844 424.140625 808.957031 422.03125 809.828125 C 419.925781 810.699219 417.730469 811.136719 415.449219 811.136719 Z M 415.449219 811.136719 " fill-opacity="1" fill-rule="nonzero"/></g><g clip-path="url(#fba68a9920)"><path fill="#d892a5" d="M 396.320312 811.136719 C 398.539062 811.109375 400.667969 810.65625 402.710938 809.785156 C 404.75 808.914062 406.550781 807.6875 408.105469 806.105469 L 795.5625 418.613281 C 795.964844 418.222656 796.347656 417.816406 796.710938 417.386719 C 797.074219 416.957031 797.414062 416.511719 797.730469 416.050781 C 798.050781 415.585938 798.34375 415.109375 798.613281 414.617188 C 798.882812 414.125 799.125 413.621094 799.34375 413.101562 C 799.566406 412.585938 799.757812 412.058594 799.921875 411.523438 C 800.089844 410.988281 800.230469 410.445312 800.339844 409.894531 C 800.453125 409.34375 800.535156 408.789062 800.59375 408.230469 C 800.648438 407.671875 800.675781 407.113281 800.675781 406.550781 C 800.675781 405.988281 800.648438 405.429688 800.59375 404.871094 C 800.535156 404.3125 800.453125 403.757812 800.339844 403.207031 C 800.230469 402.660156 800.089844 402.113281 799.921875 401.578125 C 799.757812 401.042969 799.566406 400.515625 799.34375 400 C 799.125 399.484375 798.882812 398.976562 798.613281 398.484375 C 798.34375 397.992188 798.050781 397.515625 797.730469 397.054688 C 797.414062 396.589844 797.074219 396.144531 796.710938 395.714844 C 796.347656 395.285156 795.964844 394.878906 795.5625 394.488281 L 408.105469 7.136719 C 407.710938 6.746094 407.292969 6.375 406.859375 6.023438 C 406.425781 5.675781 405.976562 5.347656 405.511719 5.042969 C 405.042969 4.734375 404.566406 4.453125 404.070312 4.191406 C 403.578125 3.933594 403.074219 3.699219 402.558594 3.488281 C 402.042969 3.277344 401.519531 3.089844 400.984375 2.933594 C 400.449219 2.773438 399.910156 2.636719 399.363281 2.53125 C 398.816406 2.425781 398.265625 2.34375 397.710938 2.289062 C 397.15625 2.234375 396.601562 2.207031 396.042969 2.207031 C 395.484375 2.207031 394.929688 2.234375 394.375 2.289062 C 393.820312 2.34375 393.269531 2.425781 392.722656 2.53125 C 392.175781 2.636719 391.636719 2.773438 391.101562 2.933594 C 390.570312 3.089844 390.042969 3.277344 389.527344 3.488281 C 389.011719 3.699219 388.507812 3.933594 388.015625 4.191406 C 387.519531 4.453125 387.042969 4.734375 386.574219 5.042969 C 386.109375 5.347656 385.660156 5.675781 385.226562 6.023438 C 384.792969 6.375 384.378906 6.746094 383.980469 7.136719 L -3.371094 394.625 C -3.773438 395.015625 -4.15625 395.425781 -4.519531 395.855469 C -4.878906 396.285156 -5.21875 396.730469 -5.535156 397.195312 C -5.851562 397.65625 -6.144531 398.132812 -6.414062 398.625 C -6.683594 399.117188 -6.925781 399.625 -7.144531 400.140625 C -7.363281 400.65625 -7.554688 401.183594 -7.722656 401.71875 C -7.886719 402.253906 -8.027344 402.796875 -8.136719 403.347656 C -8.25 403.898438 -8.332031 404.453125 -8.386719 405.011719 C -8.445312 405.566406 -8.472656 406.128906 -8.472656 406.6875 C -8.472656 407.25 -8.445312 407.808594 -8.386719 408.367188 C -8.332031 408.925781 -8.25 409.480469 -8.136719 410.03125 C -8.027344 410.578125 -7.886719 411.121094 -7.722656 411.660156 C -7.554688 412.195312 -7.363281 412.722656 -7.144531 413.238281 C -6.925781 413.753906 -6.683594 414.257812 -6.414062 414.75 C -6.144531 415.242188 -5.851562 415.722656 -5.535156 416.183594 C -5.21875 416.648438 -4.878906 417.09375 -4.519531 417.523438 C -4.15625 417.953125 -3.773438 418.363281 -3.371094 418.753906 L 384.152344 806.105469 C 385.765625 807.714844 387.628906 808.957031 389.734375 809.828125 C 391.84375 810.699219 394.039062 811.136719 396.320312 811.136719 Z M 396.320312 811.136719 " fill-opacity="1" fill-rule="nonzero"/></g></svg>