<svg xmlns="http://www.w3.org/2000/svg" xmlns:xlink="http://www.w3.org/1999/xlink" width="1080" zoomAndPan="magnify" viewBox="0 0 810 809.999993" height="1080" preserveAspectRatio="xMidYMid meet" version="1.0"><defs><clipPath id="4920c4ca32"><path d="M 3 45.054688 L 807 45.054688 L 807 764 L 3 764 Z M 3 45.054688 " clip-rule="nonzero"/></clipPath></defs><g clip-path="url(#4920c4ca32)"><path fill="#bf576a" d="M 806.09375 265.574219 C 806.09375 143.351562 707.015625 44.269531 584.8125 44.269531 C 510.628906 44.269531 445.164062 80.894531 405 136.871094 C 364.835938 80.894531 299.371094 44.269531 225.207031 44.269531 C 102.984375 44.269531 3.90625 143.328125 3.90625 265.574219 C 3.90625 282.886719 6.105469 299.660156 9.871094 315.832031 C 40.597656 506.746094 252.859375 708.15625 405 763.457031 C 557.117188 708.15625 769.402344 506.746094 800.082031 315.851562 C 803.894531 299.683594 806.09375 282.910156 806.09375 265.574219 Z M 806.09375 265.574219 " fill-opacity="1" fill-rule="nonzero"/></g></svg>